<svg aria-hidden="true" style="position: absolute; " version="1.1" xmlns="http://www.w3.org/2000/svg" xmlns:xlink="http://www.w3.org/1999/xlink">
<defs>
<symbol id="icon-phone" viewBox="0 0 32 32">
<path d="M29.471 5.839l-3.84-3.837c-0.271-0.272-0.593-0.488-0.947-0.635s-0.735-0.223-1.119-0.223c-0.782 0-1.518 0.306-2.070 0.858l-4.132 4.132c-0.272 0.271-0.488 0.593-0.635 0.947s-0.223 0.735-0.223 1.119c0 0.782 0.306 1.518 0.858 2.070l3.022 3.022c-0.707 1.559-1.691 2.977-2.903 4.186-1.209 1.215-2.627 2.202-4.186 2.913l-3.022-3.022c-0.271-0.272-0.593-0.488-0.947-0.635s-0.735-0.223-1.119-0.223c-0.782 0-1.518 0.306-2.070 0.858l-4.136 4.129c-0.272 0.271-0.488 0.594-0.636 0.949s-0.223 0.736-0.222 1.12c0 0.783 0.306 1.518 0.858 2.070l3.833 3.833c0.88 0.883 2.095 1.385 3.343 1.385 0.263 0 0.516-0.022 0.764-0.065 4.861-0.8 9.681-3.386 13.572-7.273 3.887-3.883 6.469-8.701 7.28-13.576 0.245-1.489-0.249-3.022-1.323-4.103z"></path>
</symbol>
<symbol id="icon-mail" viewBox="0 0 41 32">
<path  d="M38.091 1h-35.455c-0.754 0-1.364 0.609-1.364 1.364v27.273c0 0.754 0.609 1.364 1.364 1.364h35.455c0.754 0 1.364-0.609 1.364-1.364v-27.273c0-0.754-0.609-1.364-1.364-1.364zM34.648 5.641l-13.445 10.462c-0.332 0.26-0.797 0.26-1.129 0l-13.449-10.462c-0.051-0.039-0.088-0.093-0.106-0.154s-0.017-0.127 0.003-0.188c0.021-0.061 0.060-0.113 0.112-0.151s0.115-0.057 0.179-0.057h27.648c0.064 0 0.127 0.020 0.179 0.057s0.091 0.090 0.112 0.151c0.021 0.061 0.022 0.126 0.003 0.188s-0.056 0.115-0.106 0.154z"></path>
</symbol>
</defs>
</svg>
